<svg width="24" height="24" viewBox="0 0 24 24" fill="none" xmlns="http://www.w3.org/2000/svg">
<rect width="24" height="24" rx="7" fill="#FFE4F2"/>
<path d="M17.3025 9.07188C16.8066 8.52355 15.9783 8.24938 14.7766 8.24938H14.6366V8.22605C14.6366 7.24605 14.6366 6.03271 12.4433 6.03271H11.5566C9.36331 6.03271 9.36331 7.25188 9.36331 8.22605V8.25521H9.22331C8.01581 8.25521 7.19331 8.52938 6.69748 9.07771C6.11998 9.71938 6.13748 10.5827 6.19581 11.1719L6.20165 11.2127L6.23744 11.5885C6.2517 11.7383 6.33245 11.8738 6.45872 11.9556C6.59632 12.0447 6.77476 12.1579 6.88998 12.2219C6.97165 12.2744 7.05915 12.321 7.14665 12.3677C8.14415 12.916 9.24081 13.2835 10.355 13.4644C10.4075 14.0127 10.6466 14.6544 11.9241 14.6544C13.2016 14.6544 13.4525 14.0185 13.4933 13.4527C14.6833 13.2602 15.8325 12.846 16.8708 12.2394C16.9058 12.2219 16.9291 12.2044 16.9583 12.1869C17.1659 12.0695 17.3806 11.9277 17.5805 11.7858C17.6904 11.7078 17.7601 11.5858 17.775 11.4519V11.4519L17.8041 11.1777C17.81 11.1427 17.81 11.1135 17.8158 11.0727C17.8625 10.4835 17.8508 9.67855 17.3025 9.07188ZM12.6358 13.0677C12.6358 13.686 12.6358 13.7794 11.9183 13.7794C11.2008 13.7794 11.2008 13.6685 11.2008 13.0735V12.3385H12.6358V13.0677ZM10.1975 8.24938V8.22605C10.1975 7.23438 10.1975 6.86688 11.5566 6.86688H12.4433C13.8025 6.86688 13.8025 7.24021 13.8025 8.22605V8.25521H10.1975V8.24938Z" fill="#F478B8"/>
<path d="M16.838 13.1703C17.1932 13.0054 17.601 13.2863 17.5656 13.6763L17.39 15.6106C17.2675 16.7773 16.7892 17.9673 14.2225 17.9673H9.77749C7.21082 17.9673 6.73249 16.7773 6.60999 15.6164L6.44428 13.7936C6.40924 13.4081 6.80749 13.1275 7.16155 13.2839C7.81221 13.5713 8.72607 13.9541 9.36843 14.1378C9.53174 14.1845 9.66361 14.3033 9.74436 14.4527C10.1182 15.1444 10.8659 15.5114 11.9242 15.5114C12.9721 15.5114 13.7282 15.1302 14.1038 14.4354C14.1846 14.2859 14.3167 14.1671 14.4801 14.12C15.1665 13.9218 16.1498 13.4899 16.838 13.1703Z" fill="#F478B8"/>
</svg>
