<svg width="24" height="24" viewBox="0 0 24 24" fill="none" xmlns="http://www.w3.org/2000/svg">
<path d="M13.0417 2.33692C13.3257 2.33692 13.5799 2.51375 13.6755 2.77851L14.3577 4.66954C14.6022 4.73042 14.8119 4.7913 14.9897 4.85507C15.1839 4.92464 15.4342 5.02997 15.7434 5.17395L17.332 4.33327C17.4617 4.26458 17.6101 4.23978 17.7551 4.2626C17.9 4.28543 18.0337 4.35464 18.1359 4.45986L19.5332 5.90446C19.7187 6.09675 19.7709 6.37795 19.6666 6.62338L18.9215 8.36947C19.0452 8.59655 19.1438 8.79077 19.2192 8.95311C19.3003 9.12994 19.4008 9.37345 19.5206 9.68749L21.2571 10.4315C21.518 10.5427 21.6793 10.8036 21.6619 11.0828L21.5344 13.0879C21.5257 13.2181 21.4789 13.343 21.3999 13.4469C21.3209 13.5508 21.2131 13.6293 21.0899 13.6725L19.4453 14.2571C19.3979 14.4842 19.3486 14.6784 19.2965 14.8427C19.2123 15.0964 19.1162 15.3459 19.0085 15.5906L19.8347 17.4169C19.893 17.5452 19.9087 17.6888 19.8795 17.8267C19.8503 17.9646 19.7777 18.0895 19.6724 18.1831L18.1012 19.5862C17.9977 19.6782 17.8686 19.7364 17.7311 19.753C17.5936 19.7695 17.4544 19.7437 17.332 19.6789L15.7125 18.8209C15.4591 18.955 15.1977 19.0735 14.9298 19.1755L14.2225 19.4403L13.5944 21.1796C13.5478 21.307 13.4639 21.4173 13.3535 21.4961C13.2431 21.5749 13.1115 21.6185 12.976 21.6212L11.14 21.6627C11.0008 21.6664 10.8639 21.6268 10.7482 21.5495C10.6324 21.4721 10.5434 21.3608 10.4935 21.2308L9.75337 19.2721C9.50083 19.1858 9.25078 19.0924 9.00353 18.9919C8.8013 18.9044 8.60213 18.81 8.40636 18.7088L6.57041 19.4934C6.44944 19.545 6.31607 19.5604 6.18654 19.5375C6.05701 19.5147 5.93691 19.4547 5.84086 19.3649L4.48225 18.0904C4.3811 17.9959 4.31222 17.872 4.28534 17.7362C4.25846 17.6004 4.27495 17.4596 4.33248 17.3338L5.12194 15.6138C5.01694 15.41 4.9196 15.2025 4.83012 14.9915C4.72566 14.7332 4.62899 14.4719 4.54023 14.2078L2.81057 13.6812C2.66997 13.6387 2.54735 13.551 2.46173 13.4316C2.37611 13.3123 2.33229 13.168 2.33709 13.0212L2.40473 11.165C2.40954 11.0438 2.44738 10.9263 2.51414 10.8252C2.5809 10.724 2.67405 10.643 2.78351 10.591L4.59821 9.71938C4.68227 9.41113 4.75571 9.17149 4.82045 8.99659C4.91162 8.76299 5.01285 8.53344 5.12387 8.3086L4.33731 6.64657C4.27762 6.52036 4.25949 6.37847 4.28553 6.2413C4.31158 6.10413 4.38045 5.97876 4.48225 5.8832L5.83893 4.6019C5.93403 4.5122 6.05303 4.4519 6.1816 4.42824C6.31017 4.40458 6.44284 4.41858 6.56364 4.46855L8.39766 5.22613C8.60059 5.09085 8.78418 4.98165 8.95038 4.89372C9.14847 4.7884 9.41324 4.67824 9.74661 4.55939L10.3844 2.78044C10.4315 2.65025 10.5177 2.53779 10.6311 2.45841C10.7446 2.37903 10.8798 2.3366 11.0182 2.33692H13.0417ZM12.0232 9.11931C10.4124 9.11931 9.10692 10.4093 9.10692 12.0018C9.10692 13.5942 10.4124 14.8852 12.0232 14.8852C13.633 14.8852 14.9385 13.5942 14.9385 12.0018C14.9385 10.4093 13.634 9.11931 12.0232 9.11931Z" fill="white"/>
</svg>
