<svg width="24" height="24" viewBox="0 0 24 24" fill="none" xmlns="http://www.w3.org/2000/svg">
<path fill-rule="evenodd" clip-rule="evenodd" d="M7.35964 2.89307C6.82297 2.89318 6.30831 3.10647 5.92888 3.48601L3.48626 5.92863C3.209 6.20561 3.01813 6.55712 2.93682 6.94049H21.0632C20.9819 6.55712 20.791 6.20561 20.5138 5.92863L18.0712 3.48601C17.6917 3.10647 17.1771 2.89318 16.6404 2.89307H7.35964ZM21.1067 8.9642H2.89331V19.0828C2.89331 19.6195 3.10652 20.1342 3.48604 20.5137C3.86556 20.8933 4.3803 21.1065 4.91702 21.1065H19.083C19.6197 21.1065 20.1345 20.8933 20.514 20.5137C20.8935 20.1342 21.1067 19.6195 21.1067 19.0828V8.9642ZM12 10.9879C12.2684 10.9879 12.5257 11.0945 12.7155 11.2843C12.9053 11.474 13.0119 11.7314 13.0119 11.9998V15.2235L13.4308 14.8036C13.6206 14.6139 13.8781 14.5074 14.1465 14.5075C14.4149 14.5075 14.6723 14.6143 14.8621 14.8041C15.0518 14.994 15.1583 15.2515 15.1582 15.5199C15.1581 15.7883 15.0514 16.0457 14.8615 16.2354L12.7164 18.3815C12.6224 18.4756 12.5108 18.5503 12.388 18.6012C12.2652 18.6521 12.1335 18.6783 12.0005 18.6783C11.8675 18.6783 11.7359 18.6521 11.613 18.6012C11.4902 18.5503 11.3786 18.4756 11.2846 18.3815L9.13849 16.2354C8.94862 16.0457 8.8419 15.7883 8.84181 15.5199C8.84171 15.2515 8.94825 14.994 9.13798 14.8041C9.32771 14.6143 9.5851 14.5075 9.85351 14.5075C10.1219 14.5074 10.3794 14.6139 10.5693 14.8036L10.9882 15.2235V11.9998C10.9882 11.7314 11.0948 11.474 11.2845 11.2843C11.4743 11.0945 11.7317 10.9879 12 10.9879Z" fill="white"/>
</svg>
