<svg width="24" height="24" viewBox="0 0 24 24" fill="none" xmlns="http://www.w3.org/2000/svg">
<path d="M12 20.9744C11.6998 20.9741 11.4066 20.8833 11.1587 20.7141C7.48518 18.2204 5.89454 16.5106 5.01719 15.4416C3.14749 13.1629 2.25238 10.8234 2.27762 8.28998C2.30707 5.38681 4.63624 3.02539 7.46976 3.02539C9.53016 3.02539 10.9572 4.186 11.7883 5.15263C11.8146 5.18295 11.8471 5.20725 11.8837 5.22391C11.9202 5.24057 11.9599 5.24919 12 5.24919C12.0402 5.24919 12.0799 5.24057 12.1164 5.22391C12.1529 5.20725 12.1854 5.18295 12.2118 5.15263C13.0428 4.18507 14.4699 3.02539 16.5303 3.02539C19.3638 3.02539 21.693 5.38681 21.7224 8.29045C21.7477 10.8243 20.8516 13.1638 18.9829 15.442C18.1055 16.511 16.5149 18.2209 12.8414 20.7146C12.5934 20.8837 12.3002 20.9742 12 20.9744Z" fill="white"/>
</svg>
